<mxfile host="Electron" modified="2023-07-25T09:02:59.121Z" agent="Mozilla/5.0 (Windows NT 10.0; Win64; x64) AppleWebKit/537.36 (KHTML, like Gecko) draw.io/21.6.5 Chrome/114.0.5735.243 Electron/25.3.1 Safari/537.36" etag="bOh8o9a9wfLv1brMR0Ly" version="21.6.5" type="device">
  <diagram name="Страница 1" id="M7SOocsJ1fwCYR9fQGPZ">
    <mxGraphModel dx="1050" dy="638" grid="1" gridSize="10" guides="1" tooltips="1" connect="1" arrows="1" fold="1" page="1" pageScale="1" pageWidth="700" pageHeight="1000" math="0" shadow="0">
      <root>
        <mxCell id="0" />
        <mxCell id="1" parent="0" />
        <mxCell id="U-bPIIBkCQ5bxIv0JJyP-1" value="View" style="html=1;whiteSpace=wrap;" vertex="1" parent="1">
          <mxGeometry x="40" y="250" width="110" height="50" as="geometry" />
        </mxCell>
        <mxCell id="U-bPIIBkCQ5bxIv0JJyP-2" value="Presenter" style="html=1;whiteSpace=wrap;" vertex="1" parent="1">
          <mxGeometry x="295" y="250" width="110" height="50" as="geometry" />
        </mxCell>
        <mxCell id="U-bPIIBkCQ5bxIv0JJyP-3" value="Interactor" style="html=1;whiteSpace=wrap;" vertex="1" parent="1">
          <mxGeometry x="530" y="250" width="110" height="50" as="geometry" />
        </mxCell>
        <mxCell id="U-bPIIBkCQ5bxIv0JJyP-4" value="Entity" style="html=1;whiteSpace=wrap;" vertex="1" parent="1">
          <mxGeometry x="530" y="80" width="110" height="50" as="geometry" />
        </mxCell>
        <mxCell id="U-bPIIBkCQ5bxIv0JJyP-5" value="Router" style="html=1;whiteSpace=wrap;" vertex="1" parent="1">
          <mxGeometry x="295" y="440" width="110" height="50" as="geometry" />
        </mxCell>
        <mxCell id="U-bPIIBkCQ5bxIv0JJyP-6" value="" style="endArrow=open;endFill=1;endSize=12;html=1;rounded=0;" edge="1" parent="1">
          <mxGeometry width="160" relative="1" as="geometry">
            <mxPoint x="349" y="300" as="sourcePoint" />
            <mxPoint x="349" y="440" as="targetPoint" />
          </mxGeometry>
        </mxCell>
        <mxCell id="U-bPIIBkCQ5bxIv0JJyP-7" value="" style="endArrow=open;endFill=1;endSize=12;html=1;rounded=0;" edge="1" parent="1">
          <mxGeometry width="160" relative="1" as="geometry">
            <mxPoint x="150" y="260" as="sourcePoint" />
            <mxPoint x="295" y="260" as="targetPoint" />
          </mxGeometry>
        </mxCell>
        <mxCell id="U-bPIIBkCQ5bxIv0JJyP-8" value="" style="endArrow=open;endFill=1;endSize=12;html=1;rounded=0;" edge="1" parent="1">
          <mxGeometry width="160" relative="1" as="geometry">
            <mxPoint x="295" y="290" as="sourcePoint" />
            <mxPoint x="150" y="290" as="targetPoint" />
          </mxGeometry>
        </mxCell>
        <mxCell id="U-bPIIBkCQ5bxIv0JJyP-9" value="" style="endArrow=open;endFill=1;endSize=12;html=1;rounded=0;" edge="1" parent="1">
          <mxGeometry width="160" relative="1" as="geometry">
            <mxPoint x="405" y="260" as="sourcePoint" />
            <mxPoint x="530" y="260" as="targetPoint" />
          </mxGeometry>
        </mxCell>
        <mxCell id="U-bPIIBkCQ5bxIv0JJyP-10" value="" style="endArrow=open;endFill=1;endSize=12;html=1;rounded=0;" edge="1" parent="1">
          <mxGeometry width="160" relative="1" as="geometry">
            <mxPoint x="530" y="290" as="sourcePoint" />
            <mxPoint x="405" y="290" as="targetPoint" />
          </mxGeometry>
        </mxCell>
        <mxCell id="U-bPIIBkCQ5bxIv0JJyP-11" value="" style="endArrow=open;endFill=1;endSize=12;html=1;rounded=0;" edge="1" parent="1">
          <mxGeometry width="160" relative="1" as="geometry">
            <mxPoint x="610" y="130" as="sourcePoint" />
            <mxPoint x="610" y="250" as="targetPoint" />
          </mxGeometry>
        </mxCell>
        <mxCell id="U-bPIIBkCQ5bxIv0JJyP-12" value="" style="endArrow=open;endFill=1;endSize=12;html=1;rounded=0;" edge="1" parent="1">
          <mxGeometry width="160" relative="1" as="geometry">
            <mxPoint x="570" y="250" as="sourcePoint" />
            <mxPoint x="570" y="130" as="targetPoint" />
          </mxGeometry>
        </mxCell>
      </root>
    </mxGraphModel>
  </diagram>
</mxfile>
